<?xml version="1.0" encoding="utf-8"?>
<!-- Generator: Adobe Illustrator 25.0.1, SVG Export Plug-In . SVG Version: 6.00 Build 0)  -->
<svg version="1.1" id="Layer_1" xmlns="http://www.w3.org/2000/svg" xmlns:xlink="http://www.w3.org/1999/xlink" x="0px" y="0px"
	 viewBox="0 0 500 138.6" style="enable-background:new 0 0 500 138.6;" xml:space="preserve">
<style type="text/css">
	.st0{fill:#808080;}
	.st1{fill:none;stroke:#999999;stroke-width:0.5;stroke-miterlimit:10;}
	.st2{fill:#999999;}
	.st3{font-family:'MyriadPro-Regular';}
	.st4{font-size:6.4626px;}
</style>
<g>
	<path class="st0" d="M128.72,19.59V17.8h-3.06v-0.59l2.93-4.2h0.96v4.09h0.92v0.7h-0.92v1.79H128.72z M128.72,17.1v-2.2
		c0-0.34,0.01-0.69,0.03-1.03h-0.03c-0.2,0.38-0.36,0.67-0.55,0.97l-1.61,2.24v0.02H128.72z"/>
	<path class="st0" d="M137.8,18.56c0.25,0.16,0.84,0.41,1.46,0.41c1.14,0,1.5-0.73,1.49-1.27c-0.01-0.92-0.84-1.32-1.7-1.32h-0.5
		v-0.67h0.5c0.65,0,1.47-0.33,1.47-1.11c0-0.53-0.33-0.99-1.15-0.99c-0.53,0-1.03,0.23-1.32,0.44l-0.23-0.65
		c0.34-0.25,1.01-0.51,1.72-0.51c1.29,0,1.88,0.77,1.88,1.57c0,0.68-0.4,1.25-1.21,1.55v0.02c0.81,0.16,1.47,0.77,1.47,1.69
		c0,1.05-0.82,1.97-2.4,1.97c-0.74,0-1.39-0.23-1.71-0.44L137.8,18.56z"/>
	<path class="st0" d="M149.13,17.92c0-0.83,0.5-1.42,1.31-1.76l-0.01-0.03c-0.73-0.34-1.04-0.91-1.04-1.48
		c0-1.04,0.88-1.75,2.03-1.75c1.27,0,1.91,0.8,1.91,1.62c0,0.56-0.27,1.15-1.08,1.54v0.03c0.82,0.32,1.33,0.9,1.33,1.7
		c0,1.14-0.98,1.91-2.24,1.91C149.96,19.7,149.13,18.88,149.13,17.92z M152.67,17.88c0-0.8-0.56-1.18-1.45-1.44
		c-0.77,0.22-1.18,0.73-1.18,1.36c-0.03,0.67,0.48,1.25,1.31,1.25C152.16,19.05,152.67,18.55,152.67,17.88z M150.23,14.59
		c0,0.66,0.5,1.01,1.25,1.21c0.57-0.19,1-0.6,1-1.19c0-0.53-0.31-1.07-1.11-1.07C150.63,13.54,150.23,14.02,150.23,14.59z"/>
	<path class="st0" d="M160.76,17.92c0-0.83,0.5-1.42,1.31-1.76l-0.01-0.03c-0.73-0.34-1.04-0.91-1.04-1.48
		c0-1.04,0.88-1.75,2.03-1.75c1.27,0,1.91,0.8,1.91,1.62c0,0.56-0.27,1.15-1.08,1.54v0.03c0.82,0.32,1.33,0.9,1.33,1.7
		c0,1.14-0.98,1.91-2.24,1.91C161.59,19.7,160.76,18.88,160.76,17.92z M164.3,17.88c0-0.8-0.56-1.18-1.45-1.44
		c-0.77,0.22-1.18,0.73-1.18,1.36c-0.03,0.67,0.48,1.25,1.31,1.25C163.78,19.05,164.3,18.55,164.3,17.88z M161.85,14.59
		c0,0.66,0.5,1.01,1.25,1.21c0.57-0.19,1-0.6,1-1.19c0-0.53-0.31-1.07-1.11-1.07C162.25,13.54,161.85,14.02,161.85,14.59z"/>
	<path class="st0" d="M176.38,13.76h-2.51l-0.25,1.69c0.15-0.02,0.29-0.04,0.54-0.04c0.51,0,1.01,0.11,1.42,0.35
		c0.52,0.29,0.94,0.86,0.94,1.69c0,1.28-1.02,2.25-2.45,2.25c-0.72,0-1.33-0.2-1.64-0.4l0.22-0.68c0.27,0.16,0.81,0.36,1.41,0.36
		c0.84,0,1.56-0.55,1.56-1.43c-0.01-0.85-0.58-1.46-1.89-1.46c-0.37,0-0.67,0.04-0.91,0.07l0.42-3.16h3.15V13.76z"/>
	<path class="st0" d="M188.35,13.01v0.59l-2.86,5.99h-0.92l2.85-5.82v-0.02h-3.22v-0.74H188.35z"/>
	<path class="st0" d="M199.46,13.64c-0.18-0.01-0.41,0-0.67,0.04c-1.4,0.23-2.13,1.25-2.29,2.34h0.03c0.31-0.41,0.86-0.76,1.59-0.76
		c1.16,0,1.98,0.84,1.98,2.12c0,1.2-0.82,2.32-2.18,2.32c-1.41,0-2.33-1.09-2.33-2.8c0-1.29,0.47-2.32,1.11-2.96
		c0.55-0.54,1.27-0.87,2.1-0.97c0.26-0.04,0.49-0.05,0.65-0.05V13.64z M199.21,17.43c0-0.94-0.54-1.51-1.36-1.51
		c-0.54,0-1.03,0.33-1.27,0.81c-0.06,0.1-0.1,0.23-0.1,0.39c0.02,1.08,0.52,1.88,1.45,1.88C198.69,19.01,199.21,18.37,199.21,17.43z
		"/>
	<path class="st0" d="M211.7,16.23c0,2.24-0.83,3.47-2.29,3.47c-1.28,0-2.15-1.2-2.17-3.38c0-2.21,0.95-3.42,2.29-3.42
		C210.91,12.9,211.7,14.13,211.7,16.23z M208.13,16.33c0,1.71,0.53,2.68,1.34,2.68c0.91,0,1.35-1.06,1.35-2.74
		c0-1.62-0.41-2.68-1.34-2.68C208.69,13.59,208.13,14.54,208.13,16.33z"/>
	<path class="st0" d="M220.88,13.84h-0.02l-1.14,0.62l-0.17-0.68l1.44-0.77h0.76v6.58h-0.86V13.84z"/>
	<path class="st0" d="M230.49,17.92c0-0.83,0.5-1.42,1.3-1.76l-0.01-0.03c-0.73-0.34-1.04-0.91-1.04-1.48
		c0-1.04,0.88-1.75,2.03-1.75c1.27,0,1.91,0.8,1.91,1.62c0,0.56-0.27,1.15-1.08,1.54v0.03c0.82,0.32,1.33,0.9,1.33,1.7
		c0,1.14-0.98,1.91-2.24,1.91C231.32,19.7,230.49,18.88,230.49,17.92z M234.03,17.88c0-0.8-0.56-1.18-1.45-1.44
		c-0.77,0.22-1.18,0.73-1.18,1.36c-0.03,0.67,0.48,1.25,1.31,1.25C233.52,19.05,234.03,18.55,234.03,17.88z M231.59,14.59
		c0,0.66,0.5,1.01,1.25,1.21c0.57-0.19,1-0.6,1-1.19c0-0.53-0.31-1.07-1.11-1.07C231.99,13.54,231.59,14.02,231.59,14.59z"/>
	<path class="st0" d="M244.95,19.59V17.8h-3.05v-0.59l2.93-4.2h0.96v4.09h0.92v0.7h-0.92v1.79H244.95z M244.95,17.1v-2.2
		c0-0.34,0.01-0.69,0.03-1.03h-0.03c-0.2,0.38-0.36,0.67-0.55,0.97l-1.61,2.24v0.02H244.95z"/>
	<path class="st0" d="M258.19,16.23c0,2.24-0.83,3.47-2.29,3.47c-1.28,0-2.15-1.2-2.18-3.38c0-2.21,0.95-3.42,2.29-3.42
		C257.4,12.9,258.19,14.13,258.19,16.23z M254.62,16.33c0,1.71,0.53,2.68,1.34,2.68c0.91,0,1.35-1.06,1.35-2.74
		c0-1.62-0.41-2.68-1.34-2.68C255.19,13.59,254.62,14.54,254.62,16.33z"/>
	<path class="st0" d="M265.44,19.59v-0.55l0.7-0.68c1.68-1.6,2.44-2.45,2.45-3.44c0-0.67-0.32-1.28-1.3-1.28
		c-0.6,0-1.09,0.3-1.4,0.56l-0.28-0.63c0.46-0.38,1.1-0.67,1.86-0.67c1.42,0,2.01,0.97,2.01,1.91c0,1.21-0.88,2.19-2.27,3.53
		l-0.53,0.49v0.02h2.95v0.74H265.44z"/>
	<path class="st0" d="M280.82,13.64c-0.18-0.01-0.41,0-0.67,0.04c-1.4,0.23-2.13,1.25-2.29,2.34h0.03c0.31-0.41,0.86-0.76,1.59-0.76
		c1.16,0,1.98,0.84,1.98,2.12c0,1.2-0.82,2.32-2.19,2.32c-1.41,0-2.33-1.09-2.33-2.8c0-1.29,0.47-2.32,1.11-2.96
		c0.55-0.54,1.27-0.87,2.1-0.97c0.26-0.04,0.49-0.05,0.65-0.05V13.64z M280.57,17.43c0-0.94-0.54-1.51-1.36-1.51
		c-0.54,0-1.03,0.33-1.27,0.81c-0.06,0.1-0.1,0.23-0.1,0.39c0.02,1.08,0.52,1.88,1.45,1.88C280.05,19.01,280.57,18.37,280.57,17.43z
		"/>
	<path class="st0" d="M288.69,19.59v-0.55l0.7-0.68c1.68-1.6,2.44-2.45,2.45-3.44c0-0.67-0.32-1.28-1.3-1.28
		c-0.6,0-1.09,0.3-1.4,0.56l-0.28-0.63c0.46-0.38,1.1-0.67,1.86-0.67c1.42,0,2.01,0.97,2.01,1.91c0,1.21-0.88,2.19-2.27,3.53
		l-0.53,0.49v0.02h2.95v0.74H288.69z"/>
	<path class="st0" d="M304.07,13.64c-0.18-0.01-0.41,0-0.67,0.04c-1.4,0.23-2.13,1.25-2.29,2.34h0.03c0.31-0.41,0.86-0.76,1.59-0.76
		c1.16,0,1.98,0.84,1.98,2.12c0,1.2-0.82,2.32-2.18,2.32c-1.41,0-2.33-1.09-2.33-2.8c0-1.29,0.47-2.32,1.11-2.96
		c0.55-0.54,1.27-0.87,2.1-0.97c0.26-0.04,0.49-0.05,0.65-0.05V13.64z M303.81,17.43c0-0.94-0.54-1.51-1.36-1.51
		c-0.54,0-1.03,0.33-1.27,0.81c-0.06,0.1-0.1,0.23-0.1,0.39c0.02,1.08,0.52,1.88,1.45,1.88C303.3,19.01,303.81,18.37,303.81,17.43z"
		/>
</g>
<rect x="123.56" y="7.58" class="st1" width="8.94" height="18.53"/>
<rect x="146.81" y="7.58" class="st1" width="8.94" height="18.53"/>
<rect x="170.07" y="7.58" class="st1" width="8.94" height="18.53"/>
<rect x="193.33" y="7.58" class="st1" width="8.94" height="18.53"/>
<rect x="216.58" y="7.58" class="st1" width="8.94" height="18.53"/>
<rect x="239.84" y="7.58" class="st1" width="8.94" height="18.53"/>
<rect x="263.09" y="7.58" class="st1" width="8.94" height="18.53"/>
<rect x="286.35" y="7.58" class="st1" width="8.94" height="18.53"/>
<line class="st1" x1="128.03" y1="28.49" x2="128.03" y2="127.5"/>
<line class="st1" x1="151.28" y1="28.49" x2="151.28" y2="115.02"/>
<line class="st1" x1="174.54" y1="28.49" x2="174.54" y2="102.54"/>
<line class="st1" x1="197.8" y1="28.49" x2="197.8" y2="90.05"/>
<line class="st1" x1="221.05" y1="28.49" x2="221.05" y2="77.57"/>
<line class="st1" x1="244.31" y1="28.49" x2="244.31" y2="65.08"/>
<line class="st1" x1="267.56" y1="28.49" x2="267.56" y2="52.6"/>
<line class="st1" x1="290.82" y1="28.49" x2="290.82" y2="40.12"/>
<g>
	<g>
		<line class="st1" x1="128.03" y1="127.5" x2="315.68" y2="127.5"/>
		<g>
			<path class="st2" d="M314.78,127.5l-1.1-1.8l0.06-0.04l2.94,1.17c1.02,0.23,2.05,0.45,3.07,0.68c-1.02,0.23-2.05,0.45-3.07,0.68
				l-2.94,1.17l-0.06-0.03L314.78,127.5z"/>
		</g>
	</g>
</g>
<g>
	<g>
		<line class="st1" x1="151.28" y1="115.02" x2="315.68" y2="115.02"/>
		<g>
			<path class="st2" d="M314.78,115.02l-1.1-1.8l0.06-0.04l2.94,1.17c1.02,0.23,2.05,0.45,3.07,0.68c-1.02,0.23-2.05,0.45-3.07,0.68
				l-2.94,1.17l-0.06-0.03L314.78,115.02z"/>
		</g>
	</g>
</g>
<g>
	<g>
		<line class="st1" x1="174.54" y1="102.54" x2="315.68" y2="102.54"/>
		<g>
			<path class="st2" d="M314.78,102.54l-1.1-1.8l0.06-0.04l2.94,1.17c1.02,0.23,2.05,0.45,3.07,0.68c-1.02,0.23-2.05,0.45-3.07,0.68
				l-2.94,1.17l-0.06-0.03L314.78,102.54z"/>
		</g>
	</g>
</g>
<g>
	<g>
		<line class="st1" x1="197.8" y1="90.05" x2="315.68" y2="90.05"/>
		<g>
			<path class="st2" d="M314.78,90.05l-1.1-1.8l0.06-0.04l2.94,1.17c1.02,0.23,2.05,0.45,3.07,0.68c-1.02,0.23-2.05,0.45-3.07,0.68
				l-2.94,1.17l-0.06-0.03L314.78,90.05z"/>
		</g>
	</g>
</g>
<g>
	<g>
		<line class="st1" x1="221.05" y1="77.57" x2="315.68" y2="77.57"/>
		<g>
			<path class="st2" d="M314.78,77.57l-1.1-1.8l0.06-0.04l2.94,1.17c1.02,0.23,2.05,0.45,3.07,0.68c-1.02,0.23-2.05,0.45-3.07,0.68
				l-2.94,1.17l-0.06-0.03L314.78,77.57z"/>
		</g>
	</g>
</g>
<g>
	<g>
		<line class="st1" x1="244.31" y1="65.08" x2="315.68" y2="65.08"/>
		<g>
			<path class="st2" d="M314.78,65.08l-1.1-1.8l0.06-0.04l2.94,1.17c1.02,0.23,2.05,0.45,3.07,0.68c-1.02,0.23-2.05,0.45-3.07,0.68
				l-2.94,1.17l-0.06-0.03L314.78,65.08z"/>
		</g>
	</g>
</g>
<g>
	<g>
		<line class="st1" x1="267.56" y1="52.6" x2="315.68" y2="52.6"/>
		<g>
			<path class="st2" d="M314.78,52.6l-1.1-1.8l0.06-0.04l2.94,1.17c1.02,0.23,2.05,0.45,3.07,0.68c-1.02,0.23-2.05,0.45-3.07,0.68
				l-2.94,1.17l-0.06-0.03L314.78,52.6z"/>
		</g>
	</g>
</g>
<g>
	<g>
		<line class="st1" x1="290.82" y1="40.12" x2="315.68" y2="40.12"/>
		<g>
			<path class="st2" d="M314.78,40.12l-1.1-1.8l0.06-0.04l2.94,1.17c1.02,0.23,2.05,0.45,3.07,0.68c-1.02,0.23-2.05,0.45-3.07,0.68
				l-2.94,1.17l-0.06-0.03L314.78,40.12z"/>
		</g>
	</g>
</g>
<text transform="matrix(1 0 0 1 325.4277 42.0137)" class="st2 st3 st4">2 x 2 = 4</text>
<text transform="matrix(1 0 0 1 325.4277 54.4971)" class="st2 st3 st4">2 x 2 = 4</text>
<text transform="matrix(1 0 0 1 325.4277 66.981)" class="st2 st3 st4">4 x 2 = 8</text>
<text transform="matrix(1 0 0 1 325.4277 79.4649)" class="st2 st3 st4">1 x 2 = 2</text>
<text transform="matrix(1 0 0 1 325.4277 91.9483)" class="st2 st3 st4">6 x 2 = 12 (1+2 = 3)</text>
<text transform="matrix(1 0 0 1 325.4277 104.4326)" class="st2 st3 st4">5 x 2 = 10 (1+0 = 1)</text>
<text transform="matrix(1 0 0 1 325.4277 116.916)" class="st2 st3 st4">8 x 2 = 16 (1+6 = 7)</text>
<text transform="matrix(1 0 0 1 325.4277 129.4004)" class="st2 st3 st4">4 x 2 = 8</text>
</svg>
